<?xml version="1.0" encoding="utf-8"?>
<!-- Generator: Adobe Illustrator 18.0.0, SVG Export Plug-In . SVG Version: 6.00 Build 0)  -->
<!DOCTYPE svg PUBLIC "-//W3C//DTD SVG 1.1//EN" "http://www.w3.org/Graphics/SVG/1.1/DTD/svg11.dtd">
<svg version="1.1" xmlns="http://www.w3.org/2000/svg" xmlns:xlink="http://www.w3.org/1999/xlink" x="0px" y="0px"
	 viewBox="0 0 512 512" enable-background="new 0 0 512 512" xml:space="preserve">
<g id="Layer_2">
</g>
<g id="Boxes">
</g>
<g id="Layer_1">
	<g>
		<g>
			<defs>
				<path id="SVGID_9_" d="M0.6,256c0,141.1,114.4,255.4,255.4,255.4c141.1,0,255.4-114.4,255.4-255.4
					C511.4,114.9,397.1,0.6,256,0.6C114.9,0.6,0.6,114.9,0.6,256"/>
			</defs>
			<use xlink:href="#SVGID_9_"  overflow="visible" fill="#3AB4D7"/>
			<clipPath id="SVGID_2_">
				<use xlink:href="#SVGID_9_"  overflow="visible"/>
			</clipPath>
			<path clip-path="url(#SVGID_2_)" fill="#007096" d="M202.3,175.2c35.5,0,64.2-28.8,64.2-64.2c0-35.5-28.8-64.2-64.2-64.2
				c-35.5,0-64.2,28.8-64.2,64.2C138,146.4,166.8,175.2,202.3,175.2z"/>
			<g clip-path="url(#SVGID_2_)">
				<path fill="#007096" d="M226.2,494.2c-1.2-2.4-0.7-5.9,1-7.9l19.9-22.9c1.7-2,2.8-5.7,2.5-8.3c-0.3-3-0.6-6.1-0.6-9.2
					c-0.1-2.6-1.6-6.2-3.5-7.9l-22.7-20.1c-2-1.7-2.9-5.2-2-7.7l6-17.7c0.8-2.5,3.7-4.7,6.3-4.8l30.3-2.1c2.6-0.2,6-2.1,7.6-4.1
					c1.6-2,3.3-3.9,5-5.8c1.8-1.9,3.2-5.5,3-8.1l-2.3-30.3c-0.2-2.6,1.5-5.7,3.9-6.9l16.6-8.5c2.3-1.2,5.9-0.8,7.9,0.9l26.9,22.6
					c5.1-0.9,10.2-1.4,15.4-1.5c2.6-0.1,6.2-1.6,7.9-3.5l20.1-22.7c1.7-2,5.2-2.9,7.7-2l17.7,6c2.5,0.8,4.7,3.7,4.8,6.3l2.1,30.3
					c0.2,2.6,2.1,6,4.1,7.6c2.5,2,4.9,4.1,7.1,6.3c1.9,1.8,5.5,3.3,8.1,3.1l30.3-1.7c2.6-0.2,5.7,1.6,6.8,4l7.6,15.6
					c25.2-39.6,39.8-86.6,39.8-136.9c0-107.6-66.6-199.7-160.7-237.3L345,32.6c-1,2.4-0.8,6.3,0.4,8.6c2.7,5.4,5,11,7,16.6
					c0.9,2.5,3.5,5.3,5.9,6.3l50.8,20.4c2.4,1,4.4,3.9,4.5,6.5l0.6,35.8c0,2.6-1.9,5.6-4.3,6.7l-54.5,23.9
					c-2.6,8.9-5.9,17.6-10.1,26c-1.2,2.4-1.4,6.2-0.4,8.6l20.7,50.6c1,2.4,0.3,5.9-1.6,7.8l-25.3,25.3c-1.9,1.9-5.3,2.6-7.8,1.6
					l-50.6-20.7c-2.4-1-6.3-0.8-8.6,0.4c-6.4,3.1-12.9,5.8-19.5,8c-2.5,0.8-5.4,3.4-6.4,5.8l-21.4,50.4c-1,2.4-4,4.4-6.6,4.4
					l-35.8-0.1c-2.6,0-5.6-2-6.6-4.4l-21-50.6c-1-2.4-3.9-5-6.3-5.9c-6.3-2.2-12.5-4.7-18.5-7.7c-2.4-1.2-6.2-1.4-8.6-0.4
					l-50.6,20.7c-2.4,1-5.9,0.3-7.8-1.6l-25.3-25.3c-1.9-1.9-2.6-5.3-1.6-7.8l20.7-50.6c1-2.4,0.8-6.3-0.4-8.6
					c-3-6.2-5.7-12.6-7.9-19c-0.8-2.5-3.4-5.3-5.9-6.4l-18.7-7.9C8.8,182.5,0.6,218.3,0.6,256c0,133.7,102.7,243.4,233.6,254.5
					L226.2,494.2z"/>
				<path fill="#007096" d="M365.5,479.2c19.8-9.8,27.9-33.7,18.1-53.4c-9.8-19.8-33.7-27.9-53.4-18.1
					c-19.8,9.7-27.9,33.7-18.1,53.4C321.8,480.9,345.7,489,365.5,479.2z"/>
			</g>
		</g>
		<g>
			<g>
				<path fill="#FFFFFF" d="M417.3,375.9c-4.2,0-8.4,0-12.6,0c-1.3,0-2.4-1.1-2.4-2.4v-24.3h-20.5v24.3c0,1.3-1.1,2.4-2.4,2.4
					c-4.2,0-8.5,0-12.6,0c-1.3,0-2.4-1.1-2.4-2.4v-61.7c0-1.3,1.1-2.4,2.4-2.4c4.2,0,8.4,0,12.6,0c1.3,0,2.4,1.1,2.4,2.4v21.7h20.5
					v-21.7c0-1.3,1.1-2.4,2.4-2.4c4.2,0,8.4,0,12.6,0c1.3,0,2.4,1.1,2.4,2.4v61.7C419.6,374.8,418.6,375.9,417.3,375.9z"/>
				<path fill="#FFFFFF" d="M297.1,322.2c0-3.5,0-7,0-10.4c0-1.3,1.1-2.4,2.4-2.4H350c1.3,0,2.4,1.1,2.4,2.4c0,3.5,0,6.9,0,10.4
					c0,1.3-1.1,2.4-2.4,2.4h-16.8v48.9c0,1.3-1.1,2.4-2.4,2.4c-4,0-8,0-12.1,0c-1.3,0-2.4-1.1-2.4-2.4v-48.9h-16.9
					C298.1,324.6,297.1,323.5,297.1,322.2z"/>
				<path fill="#FFFFFF" d="M104,375.9c-4.3,0-8.6,0-12.8,0c-1.3,0-2.4-1.1-2.4-2.4v-61.7c0-1.3,1.1-2.4,2.4-2.4H104
					c1.3,0,3,0.9,3.7,2l20.9,30.6v-30.2c0-1.3,1.1-2.4,2.4-2.4c4.2,0,8.4,0,12.6,0c1.3,0,2.4,1.1,2.4,2.4v61.7
					c0,1.3-1.1,2.4-2.4,2.4h-12.6c-1.3,0-3-0.9-3.7-2l-20.9-30.7v30.3C106.4,374.8,105.3,375.9,104,375.9z"/>
				<path fill="#FFFFFF" d="M156,342.6c0-46,68.2-46,68.2,0C224.2,388.7,156,388.7,156,342.6z M206.8,342.6c0-23.9-33.3-23.9-33.3,0
					C173.5,366.7,206.8,366.7,206.8,342.6z"/>
				<path fill="#FFFFFF" d="M274.9,375.9c-1.3,0-2.9-0.9-3.6-2l-10.7-17.5h-8.8v17.2c0,1.3-1.1,2.4-2.4,2.4c-4.2,0-8.7,0-12.8,0
					c-1.3,0-2.4-1.1-2.4-2.4c0-20.5,0-41.1,0-61.7c0-1.3,1.1-2.4,2.4-2.4c8.9,0,18.5,0,27.3,0c26.1,0.1,30.9,31.5,14.1,42.9
					l12.4,21.5c0.7,1.1,0.1,2.1-1.2,2.1H274.9z M263.8,324.6c-4-0.1-8.2,0-12.2,0c0,5.4,0,11.1,0,16.4h12.2
					C273,341,273.5,324.7,263.8,324.6z"/>
			</g>
			<g>
				<path fill="#FFFFFF" d="M288.1,285.8c-4.2,0-8.4,0-12.6,0c-1.3,0-2.4-1.1-2.4-2.4v-24.3h-20.5v24.3c0,1.3-1.1,2.4-2.4,2.4
					c-4.2,0-8.5,0-12.6,0c-1.3,0-2.4-1.1-2.4-2.4v-61.7c0-1.3,1.1-2.4,2.4-2.4c4.2,0,8.4,0,12.6,0c1.3,0,2.4,1.1,2.4,2.4v21.7h20.5
					v-21.7c0-1.3,1.1-2.4,2.4-2.4c4.2,0,8.4,0,12.6,0c1.3,0,2.4,1.1,2.4,2.4v61.7C290.5,284.7,289.4,285.8,288.1,285.8z"/>
				<path fill="#FFFFFF" d="M167.9,232.1c0-3.5,0-7,0-10.4c0-1.3,1.1-2.4,2.4-2.4h50.5c1.3,0,2.4,1.1,2.4,2.4c0,3.5,0,6.9,0,10.4
					c0,1.3-1.1,2.4-2.4,2.4H204v48.9c0,1.3-1.1,2.4-2.4,2.4c-4,0-8,0-12.1,0c-1.3,0-2.4-1.1-2.4-2.4v-48.9h-16.9
					C169,234.5,167.9,233.5,167.9,232.1z"/>
				<path fill="#FFFFFF" d="M344.1,232.1c0-3.5,0-7,0-10.4c0-1.3-1.1-2.4-2.4-2.4c-13.5,0-23.4,0-36.7,0c-1.3,0-2.4,1.1-2.4,2.4
					c0,20.6,0,40.9,0,61.7c0,1.3,1.1,2.4,2.4,2.4c13.3,0,23.2,0,36.7,0c1.3,0,2.4-1.1,2.4-2.4c0-3.5,0-6.9,0-10.3
					c0-1.3-1.1-2.4-2.4-2.4c-8.4,0-13.2,0-22.2,0c0-1.3,0-6.5,0-11.6h20.4c1.3,0,2.4-1.1,2.4-2.4v-10.9c0-1.3-1.1-2.4-2.4-2.4h-20.4
					c0-5.9,0-8.9,0-8.9c9,0,13.9,0,22.2,0C343,234.5,344.1,233.5,344.1,232.1z"/>
			</g>
			<g>
				<path fill="#FFFFFF" d="M169.6,195.7c-4.2,0-8.4,0-12.6,0c-1.3,0-2.4-1.1-2.4-2.4V169h-20.5v24.3c0,1.3-1.1,2.4-2.4,2.4
					c-4.2,0-8.5,0-12.6,0c-1.3,0-2.4-1.1-2.4-2.4v-61.7c0-1.3,1.1-2.4,2.4-2.4c4.2,0,8.4,0,12.6,0c1.3,0,2.4,1.1,2.4,2.4v21.7h20.5
					v-21.7c0-1.3,1.1-2.4,2.4-2.4c4.2,0,8.4,0,12.6,0c1.3,0,2.4,1.1,2.4,2.4v61.7C172,194.6,170.9,195.7,169.6,195.7z"/>
				<path fill="#FFFFFF" d="M220.3,131.4c-0.5-1.2-2-2.2-3.4-2.2h-3.5c-1.3,0-2.8,1-3.4,2.2l-27.5,61c-0.8,1.8,0.1,3.3,2.1,3.3h11.7
					c1.3,0,2.8-1,3.3-2.2l4-9.7h22.9l4.1,9.7c0.5,1.2,2,2.2,3.3,2.2h11.7c2,0,2.9-1.5,2.1-3.3L220.3,131.4z M210.1,168.5l5.1-12.3
					l5.1,12.3H210.1z"/>
				<path fill="#FFFFFF" d="M298.1,151.3c0.8,1.1,2.3,2,3.6,2h12.6c2,0,3.2-1.6,2.6-3.4c-11.2-33.2-66.7-29.1-66.7,12.6
					c0,42.7,58.2,46.1,67.4,10.1c0.5-1.9-0.9-3.5-2.8-3.5h-12c-1.3,0-2.7,1-3.2,2.2c-7,14.9-31.7,12-31.7-8.9
					C267.8,143,289.7,139.2,298.1,151.3z"/>
				<path fill="#FFFFFF" d="M345.6,193.3V169h6.8l12.1,24.5c0.6,1.2,2.1,2.1,3.4,2.1l15.5,0c1.3,0,1.8-0.9,1.2-2.1l-18-31.5l18-30.8
					c0.7-1.1,0.1-2.1-1.2-2.1l-15.5,0c-1.3,0-2.9,0.9-3.5,2.1l-12,22h-6.8v-21.7c0-1.3-1.1-2.4-2.4-2.4c-4.2,0-8.3,0-12.4,0
					c-1.3,0-2.4,1.1-2.4,2.4v61.7c0,1.3,1.1,2.4,2.4,2.4l12.4,0C344.5,195.7,345.6,194.7,345.6,193.3z"/>
			</g>
		</g>
		<path fill="#FFFFFF" d="M294.3,60.6c-1.2,0.5-1.9,1.8-1.4,3.1l1.8,4.8c0.5,1.2,1.8,1.9,3.1,1.4l16.9-6.4l6.4,16.9
			c0.5,1.2,1.8,1.9,3.1,1.4l4.8-1.8c1.2-0.5,1.9-1.8,1.4-3.1L323.9,60l-2.6-7c-0.5-1.2-1.8-1.9-3.1-1.4l-7,2.6L294.3,60.6z"/>
		<path fill="#FFFFFF" d="M203.2,444.3c1.2-0.5,1.9-1.8,1.4-3.1l-1.8-4.8c-0.5-1.2-1.8-1.9-3.1-1.4l-16.9,6.4l-6.4-16.9
			c-0.5-1.2-1.8-1.9-3.1-1.4l-4.8,1.8c-1.2,0.5-1.9,1.8-1.4,3.1l6.4,16.9l2.6,7c0.5,1.2,1.8,1.9,3.1,1.4l7-2.6L203.2,444.3z"/>
	</g>
</g>
<g id="Grids_Updated">
</g>
<g id="Map">
</g>
</svg>
